<?xml version="1.0" encoding="UTF-8"?>
<svg id="Layer_1" data-name="Layer 1" xmlns="http://www.w3.org/2000/svg" viewBox="0 0 362.1 295.97">
  <defs>
    <style>
      .cls-1 {
        fill: #58595b;
      }
    </style>
  </defs>
  <g>
    <path class="cls-1" d="M315.69,80.16h-46.9c.24,5.06,2.38,9.44,6.39,13.15,3.98,3.68,8.52,5.52,13.61,5.52,4.04,0,7.76-1.08,11.13-3.22,3.5-2.24,5.93-5.23,7.31-8.97h6.99c-1.9,5.4-5.18,9.76-9.84,13.1-4.66,3.35-9.82,5.02-15.49,5.02-7.42,0-13.76-2.65-19.03-7.96-5.21-5.24-7.82-11.57-7.82-18.99s2.6-13.74,7.82-19.08c5.27-5.37,11.58-8.05,18.94-8.05s13.85,2.75,19.13,8.23c5.24,5.42,7.86,11.87,7.86,19.35l-.09,1.89ZM309.02,74.23c-.86-5.09-3.14-9.29-6.85-12.6-3.74-3.34-8.17-5.02-13.29-5.02s-9.52,1.68-13.29,5.02c-3.71,3.31-5.98,7.51-6.81,12.6h40.23Z"/>
    
    <g>
    <!-- big gear -->
    <path class="cls-1" d="M93.74,62.29l19.57,19.66c1.7-.1,3.4-.14,5.1-.14,4.18,0,8.34.29,12.44.85l21.07-18.07c9.96,3.05,19.48,7.43,28.26,13.03l-.06,27.76c4.34,3.87,8.34,8.17,11.92,12.88l27.65,2.12c2.41,4.54,4.57,9.27,6.4,14.23,1.83,4.96,3.26,9.96,4.37,14.98l-19.66,19.57c.33,5.9.08,11.77-.7,17.53l18.07,21.07c-3.05,9.96-7.43,19.48-13.03,28.26l-27.76-.06c-3.87,4.34-8.17,8.34-12.88,11.92l-2.12,27.65c-4.54,2.41-9.27,4.57-14.23,6.4s-9.96,3.26-14.98,4.37l-19.57-19.66c-1.7.1-3.4.14-5.09.14-4.18,0-8.34-.29-12.44-.85l-21.07,18.07c-9.96-3.05-19.48-7.43-28.26-13.03l.06-27.76c-4.34-3.87-8.34-8.17-11.92-12.88l-27.65-2.12c-2.41-4.54-4.57-9.27-6.4-14.23-1.83-4.96-3.26-9.96-4.37-14.98l19.66-19.57c-.33-5.9-.08-11.77.7-17.53l-18.07-21.07c3.05-9.96,7.43-19.48,13.03-28.26l27.76.06c3.87-4.34,8.17-8.34,12.88-11.92l2.12-27.66c4.54-2.41,9.27-4.57,14.23-6.4,4.96-1.83,9.96-3.26,14.98-4.37M95.63,55.83l-3.17.7c-5.45,1.21-10.75,2.76-15.74,4.6-4.99,1.84-10.02,4.1-14.96,6.72l-2.87,1.52-.25,3.24-1.92,25.07c-3.45,2.78-6.72,5.81-9.78,9.06l-25.16-.06h-3.24s-1.74,2.73-1.74,2.73c-5.89,9.24-10.49,19.23-13.7,29.71l-.95,3.1,2.11,2.46,16.38,19.1c-.48,4.43-.66,8.89-.54,13.32l-17.82,17.74-2.3,2.29.7,3.17c1.21,5.46,2.76,10.75,4.6,15.74,1.84,4.99,4.1,10.02,6.72,14.95l1.52,2.87,3.23.25,25.07,1.92c2.78,3.45,5.81,6.72,9.06,9.78l-.06,25.16v3.24s2.73,1.74,2.73,1.74c9.24,5.89,19.23,10.49,29.71,13.7l3.1.95,2.46-2.11,19.1-16.38c3.52.38,7.07.57,10.58.57.91,0,1.83-.01,2.75-.04l17.74,17.82,2.29,2.3,3.17-.7c5.46-1.21,10.76-2.76,15.74-4.6,4.99-1.84,10.02-4.1,14.95-6.72l2.87-1.52.25-3.24,1.92-25.07c3.45-2.78,6.72-5.81,9.78-9.06l25.16.06h3.24s1.74-2.73,1.74-2.73c5.89-9.24,10.49-19.23,13.7-29.71l.95-3.1-2.11-2.46-16.38-19.1c.48-4.43.66-8.9.53-13.32l17.82-17.74,2.3-2.29-.7-3.17c-1.21-5.46-2.76-10.76-4.6-15.74-1.84-4.99-4.1-10.02-6.72-14.95l-1.52-2.87-3.23-.25-25.07-1.92c-2.78-3.45-5.81-6.72-9.06-9.78l.06-25.16v-3.24s-2.73-1.74-2.73-1.74c-9.24-5.89-19.23-10.49-29.71-13.7l-3.1-.95-2.46,2.11-19.1,16.38c-3.52-.38-7.06-.57-10.57-.57-.92,0-1.83.01-2.75.04l-17.74-17.82-2.29-2.3h0Z"/>
    
    <animateTransform attributeName="transform" attributeType="XML" dur="15s" from="0 117 173" repeatCount="indefinite" to="360 117 173" type="rotate"/>
    </g>
    
    <g>
    <!-- small gear -->
    <path class="cls-1" d="M283.3,6.23l11.93,25.31c5.75.72,11.16,2.49,16.04,5.13l24.4-13.64c8.25,7.07,14.87,15.99,19.19,26.14l-20.4,19.19c.53,2.78.82,5.65.82,8.59s-.27,5.57-.75,8.25l20.55,19.03c-4.24,10.18-10.79,19.15-18.98,26.29l-24.51-13.45c-4.86,2.68-10.26,4.5-16,5.26l-11.74,25.39c-11.23-.89-21.73-4.37-30.88-9.88l5.23-27.51c-4.1-3.85-7.5-8.45-9.97-13.58l-27.77-3.31c-1.26-5.29-1.94-10.8-1.94-16.48s.64-10.82,1.82-15.95l27.75-3.53c2.43-5.15,5.78-9.77,9.86-13.65l-5.44-27.47c9.12-5.58,19.59-9.15,30.81-10.12M286.88,0l-4.09.35c-11.78,1.02-23.33,4.81-33.38,10.96l-3.5,2.14.8,4.03,4.83,24.42c-2.84,3.07-5.28,6.46-7.3,10.11l-24.66,3.13-4.08.52-.92,4.01c-1.31,5.69-1.97,11.5-1.97,17.27s.71,11.97,2.1,17.84l.95,4,4.09.49,24.68,2.94c2.04,3.63,4.51,7,7.38,10.05l-4.65,24.45-.77,4.04,3.52,2.12c10.09,6.07,21.66,9.77,33.46,10.7l4.09.32,1.72-3.73,10.43-22.56c4.11-.81,8.08-2.12,11.85-3.89l21.78,11.95,3.61,1.98,3.1-2.7c8.93-7.77,16.04-17.62,20.56-28.47l1.58-3.8-3.02-2.79-18.26-16.91c.24-2.02.36-4.04.36-6.04,0-2.13-.14-4.29-.41-6.43l18.13-17.05,3-2.82-1.61-3.79c-4.6-10.81-11.78-20.6-20.77-28.31l-3.12-2.68-3.59,2.01-21.68,12.12c-3.79-1.75-7.77-3.02-11.89-3.8l-10.6-22.49-1.75-3.71h0Z"/>
    
    <animateTransform attributeName="transform" attributeType="XML" dur="9s" from="360 289 77" repeatCount="indefinite" to="0 289 77" type="rotate"/>
    </g>
    
    <path class="cls-1" d="M118.24,125.14c-13.3,0-24.88,4.92-34.41,14.62-9.43,9.65-14.21,21.33-14.21,34.7s4.78,25.03,14.21,34.51c9.54,9.6,21.17,14.46,34.59,14.46,10.25,0,19.72-3.06,28.15-9.11,7.85-5.63,13.62-12.98,17.15-21.86h-9.95c-2.74,6.84-7.42,12.4-13.91,16.55-6.53,4.15-13.8,6.26-21.63,6.26-9.87,0-18.78-3.6-26.48-10.72-7.78-7.19-11.96-15.81-12.44-25.63l-.07-1.54h87.95l.11-2.13c0-13.47-4.82-25.32-14.31-35.14-9.54-9.93-21.23-14.96-34.75-14.96ZM157.87,169.21h-78.8l.28-1.71c1.6-9.83,6.04-18.05,13.21-24.45,7.31-6.48,16.01-9.76,25.86-9.76s18.61,3.28,25.86,9.76c7.17,6.39,11.64,14.61,13.3,24.44l.29,1.72Z"/>
  </g>
  <g>
    <path class="cls-1" d="M221.92,286l-4.65,4.08,2.16,2.46,5.3-4.64,1.51,1.72-7.26,6.36-8.39-9.58,7.02-6.16,1.49,1.7-5.07,4.44,1.78,2.03,4.65-4.08,1.46,1.66Z"/>
    <path class="cls-1" d="M236.51,274.98l-3.1,3.52,1.38,2.39-1.84,2.08-6.55-11.82,1.99-2.26,12.53,5.03-1.91,2.16-2.5-1.12ZM234.37,274.09l-4.81-2.11,2.68,4.54,2.13-2.43Z"/>
    <path class="cls-1" d="M247.95,261.16c.35-.52.58-.98.69-1.39.2-.77,0-1.35-.6-1.75-.35-.23-.72-.26-1.12-.08-.39.18-.88.55-1.47,1.11l-1,.95c-.98.93-1.77,1.51-2.34,1.73-.97.39-1.97.23-3.01-.47-.95-.64-1.5-1.51-1.66-2.62-.17-1.11.2-2.33,1.1-3.66.75-1.12,1.68-1.87,2.8-2.26,1.12-.39,2.25-.22,3.4.5l-1.43,2.12c-.66-.39-1.3-.41-1.91-.08-.41.23-.79.59-1.13,1.11-.39.57-.58,1.1-.57,1.59,0,.5.21.88.62,1.15.37.26.77.28,1.18.07.27-.13.73-.49,1.36-1.08l1.66-1.53c.73-.67,1.39-1.1,1.98-1.29.92-.3,1.85-.13,2.79.51.96.64,1.52,1.55,1.66,2.72.14,1.16-.24,2.42-1.15,3.77-.93,1.38-1.97,2.25-3.13,2.61-1.16.36-2.29.18-3.39-.56l1.42-2.11c.53.26.98.37,1.35.33.67-.06,1.31-.53,1.89-1.4Z"/>
    <path class="cls-1" d="M250.72,234.12l5.19,7.37,4.28,2.14-1.19,2.38-4.28-2.14-9.08.37,1.41-2.8,6.14.13-3.82-4.75,1.35-2.69Z"/>
    <path class="cls-1" d="M263.54,220.56l-2.04,5.84,3.09,1.08,2.33-6.65,2.16.75-3.18,9.1-12.02-4.2,3.09-8.82,2.12.75-2.23,6.36,2.56.89,2.04-5.84,2.08.73Z"/>
    <path class="cls-1" d="M273.96,201.49l-.55,2.6-9.92,3.24,8.85,1.85-.51,2.42-12.46-2.61.57-2.73,9.74-3.14-8.7-1.82.51-2.43,12.46,2.61Z"/>
    <path class="cls-1" d="M282.53,190.66c-.25.79-.75,1.52-1.53,2.19-1.27,1.11-2.69,1.58-4.27,1.41-1.62-.14-3.1-.98-4.44-2.52-1.36-1.55-2.02-3.17-1.99-4.85.03-1.68.75-3.14,2.15-4.37,1.21-1.07,2.46-1.61,3.74-1.64s2.38.37,3.29,1.2l-1.97,1.72c-.72-.52-1.49-.65-2.31-.4-.45.14-.88.4-1.28.75-.77.67-1.15,1.52-1.14,2.54.02,1.01.54,2.11,1.56,3.28,1.03,1.18,2.03,1.78,2.99,1.8.97.02,1.79-.27,2.48-.87.67-.59,1.05-1.26,1.14-2.03.09-.77-.09-1.5-.54-2.22l-2.21,1.94-1.4-1.6,3.99-3.5,4.5,5.14-1.32,1.16-1.25-1.02c.01.79-.05,1.42-.2,1.87Z"/>
    <path class="cls-1" d="M288.75,174.46l2.59-.56,2.71,12.44-2.58.56-2.72-12.44Z"/>
    <path class="cls-1" d="M313.85,183.79l-2.62.48-6.74-7.96,1.63,8.9-2.44.44-2.3-12.52,2.75-.5,6.59,7.83-1.6-8.74,2.44-.45,2.29,12.52Z"/>
    <path class="cls-1" d="M331.08,172.11l-5.75,2.27,1.2,3.05,6.55-2.59.84,2.13-8.97,3.54-4.68-11.84,8.68-3.43.83,2.1-6.26,2.48.99,2.52,5.75-2.27.81,2.06Z"/>
  </g>
</svg>