<?xml version="1.0" encoding="UTF-8"?>
<svg id="Layer_1" data-name="Layer 1" xmlns="http://www.w3.org/2000/svg" viewBox="0 0 385.86 311.35">
  <defs>
    <style>
      .cls-1 {
        fill: #808285;
      }
    </style>
  </defs>
  <g>
    <path class="cls-1" d="M.27,123.74v-49.52h13.98c4.31,0,8.12.95,11.43,2.86,3.31,1.9,5.87,4.62,7.67,8.13,1.8,3.52,2.72,7.55,2.74,12.11v3.16c0,4.67-.9,8.76-2.7,12.28s-4.38,6.21-7.72,8.1c-3.35,1.88-7.24,2.85-11.69,2.89H.27ZM6.8,79.56v38.84h6.87c5.03,0,8.95-1.57,11.75-4.7,2.8-3.13,4.2-7.59,4.2-13.38v-2.89c0-5.62-1.32-10-3.96-13.12-2.64-3.12-6.39-4.7-11.24-4.75h-7.62Z"/>
    <path class="cls-1" d="M43.29,105c0-3.61.71-6.85,2.12-9.73,1.42-2.88,3.39-5.1,5.92-6.66,2.53-1.57,5.41-2.35,8.65-2.35,5.01,0,9.06,1.74,12.16,5.2,3.1,3.47,4.64,8.09,4.64,13.84v.44c0,3.58-.68,6.8-2.06,9.64-1.37,2.85-3.33,5.07-5.88,6.65s-5.48,2.38-8.79,2.38c-4.99,0-9.03-1.73-12.13-5.2s-4.64-8.06-4.64-13.78v-.44ZM49.62,105.75c0,4.08.95,7.36,2.84,9.83s4.43,3.7,7.6,3.7,5.73-1.25,7.62-3.76c1.88-2.51,2.82-6.02,2.82-10.53,0-4.03-.96-7.31-2.88-9.81s-4.46-3.76-7.64-3.76-5.61,1.23-7.51,3.7c-1.91,2.48-2.86,6.01-2.86,10.61Z"/>
    <path class="cls-1" d="M99.45,119.29c2.24,0,4.21-.68,5.88-2.04s2.61-3.06,2.79-5.1h5.95c-.11,2.11-.84,4.11-2.18,6.02-1.34,1.9-3.12,3.42-5.36,4.55-2.23,1.14-4.6,1.7-7.09,1.7-5.01,0-9-1.67-11.96-5.02-2.96-3.34-4.44-7.92-4.44-13.72v-1.05c0-3.58.66-6.77,1.97-9.56,1.32-2.79,3.2-4.96,5.66-6.5s5.37-2.31,8.73-2.31c4.13,0,7.56,1.24,10.29,3.71s4.19,5.68,4.37,9.62h-5.95c-.18-2.38-1.08-4.34-2.7-5.87-1.62-1.53-3.62-2.29-6-2.29-3.2,0-5.67,1.15-7.43,3.45-1.76,2.3-2.64,5.63-2.64,9.98v1.19c0,4.24.87,7.51,2.62,9.8,1.74,2.29,4.24,3.44,7.48,3.44Z"/>
    <path class="cls-1" d="M131.42,106.7l-3.94,4.11v12.93h-6.29v-52.25h6.29v31.6l3.37-4.04,11.46-12.11h7.65l-14.32,15.38,15.98,21.43h-7.38l-12.83-17.04Z"/>
    <path class="cls-1" d="M171.05,124.42c-4.99,0-9.05-1.63-12.18-4.91-3.13-3.28-4.7-7.66-4.7-13.15v-1.16c0-3.65.7-6.91,2.09-9.78s3.34-5.11,5.85-6.73,5.22-2.43,8.15-2.43c4.78,0,8.51,1.58,11.16,4.73,2.65,3.15,3.98,7.66,3.98,13.54v2.62h-24.93c.09,3.63,1.15,6.56,3.18,8.8s4.61,3.35,7.74,3.35c2.22,0,4.1-.45,5.65-1.36,1.54-.9,2.89-2.11,4.05-3.6l3.84,2.99c-3.08,4.74-7.71,7.11-13.87,7.11ZM170.27,91.43c-2.54,0-4.67.92-6.4,2.77-1.72,1.85-2.79,4.44-3.2,7.77h18.44v-.48c-.18-3.2-1.04-5.68-2.59-7.43s-3.63-2.63-6.26-2.63Z"/>
    <path class="cls-1" d="M210.47,92.59c-.95-.16-1.99-.24-3.1-.24-4.13,0-6.93,1.76-8.4,5.27v26.12h-6.29v-36.8h6.12l.1,4.25c2.07-3.29,4.99-4.93,8.78-4.93,1.22,0,2.15.16,2.79.48v5.85Z"/>
  </g>
  <g>
    <path class="cls-1" d="M28.26,27.31H6.8v17.55h24.93v5.34H.27V.68h31.12v5.34H6.8v15.95h21.46v5.34Z"/>
    <path class="cls-1" d="M61.6,50.2c-.37-.73-.66-2.02-.89-3.88-2.92,3.04-6.42,4.55-10.48,4.55-3.62,0-6.6-1.02-8.93-3.07-2.32-2.05-3.48-4.66-3.48-7.81,0-3.83,1.45-6.8,4.37-8.93,2.92-2.12,7.01-3.18,12.3-3.18h6.12v-2.89c0-2.2-.66-3.95-1.97-5.25-1.32-1.3-3.25-1.96-5.82-1.96-2.24,0-4.13.56-5.65,1.7-1.52,1.13-2.28,2.51-2.28,4.11h-6.32c0-1.84.65-3.61,1.96-5.33,1.3-1.71,3.07-3.07,5.3-4.06,2.23-1,4.69-1.5,7.36-1.5,4.24,0,7.56,1.06,9.97,3.18s3.65,5.04,3.74,8.76v16.94c0,3.38.43,6.06,1.29,8.06v.55h-6.6ZM51.15,45.41c1.97,0,3.85-.51,5.61-1.53,1.77-1.02,3.05-2.35,3.85-3.98v-7.55h-4.93c-7.71,0-11.57,2.26-11.57,6.77,0,1.97.66,3.52,1.97,4.63,1.32,1.11,3,1.66,5.07,1.66Z"/>
    <path class="cls-1" d="M98.19,40.44c0-1.7-.64-3.02-1.92-3.96s-3.51-1.75-6.7-2.43c-3.19-.68-5.72-1.5-7.58-2.45-1.87-.95-3.25-2.09-4.15-3.4-.89-1.32-1.34-2.88-1.34-4.7,0-3.02,1.28-5.57,3.83-7.65,2.55-2.08,5.81-3.13,9.78-3.13,4.18,0,7.56,1.07,10.15,3.23,2.6,2.15,3.9,4.91,3.9,8.26h-6.33c0-1.72-.73-3.21-2.19-4.46-1.46-1.25-3.3-1.87-5.53-1.87s-4.08.5-5.37,1.49c-1.29,1-1.94,2.3-1.94,3.92,0,1.52.6,2.66,1.8,3.44s3.37,1.51,6.51,2.21c3.14.7,5.69,1.55,7.64,2.52s3.4,2.15,4.33,3.52c.94,1.37,1.41,3.04,1.41,5.02,0,3.29-1.32,5.92-3.95,7.91-2.63,1.98-6.04,2.97-10.24,2.97-2.95,0-5.56-.52-7.82-1.56-2.27-1.04-4.04-2.5-5.33-4.37s-1.92-3.89-1.92-6.07h6.29c.11,2.11.96,3.78,2.54,5.02,1.57,1.24,3.66,1.85,6.24,1.85,2.38,0,4.29-.48,5.73-1.44s2.16-2.25,2.16-3.86Z"/>
    <path class="cls-1" d="M124.72,40.98l8.57-27.59h6.73l-14.79,42.49c-2.29,6.12-5.93,9.18-10.92,9.18l-1.19-.1-2.35-.44v-5.1l1.7.14c2.13,0,3.79-.43,4.98-1.29,1.19-.86,2.17-2.44,2.94-4.73l1.4-3.74-13.13-36.39h6.87l9.18,27.59Z"/>
    <path class="cls-1" d="M174.62,27.31h-21.46v17.55h24.93v5.34h-31.46V.68h31.12v5.34h-24.59v15.95h21.46v5.34Z"/>
    <path class="cls-1" d="M191.19,13.4l.2,4.63c2.81-3.54,6.48-5.31,11.02-5.31,7.78,0,11.7,4.39,11.77,13.16v24.32h-6.29v-24.35c-.02-2.66-.63-4.62-1.82-5.88-1.19-1.27-3.04-1.91-5.56-1.91-2.04,0-3.84.55-5.38,1.63s-2.74,2.51-3.6,4.29v26.22h-6.29V13.4h5.95Z"/>
    <path class="cls-1" d="M222.17,31.5c0-5.74,1.33-10.3,3.98-13.69,2.65-3.39,6.17-5.08,10.54-5.08s7.99,1.59,10.51,4.76l.31-4.08h5.75v35.92c0,4.76-1.41,8.51-4.24,11.26s-6.62,4.12-11.38,4.12c-2.65,0-5.25-.57-7.79-1.7-2.54-1.14-4.48-2.69-5.82-4.66l3.26-3.78c2.7,3.33,6,5,9.9,5,3.06,0,5.44-.86,7.16-2.59,1.71-1.73,2.57-4.15,2.57-7.28v-3.16c-2.51,2.9-5.95,4.35-10.31,4.35s-7.79-1.73-10.46-5.2-4-8.2-4-14.18ZM228.5,32.21c0,4.15.85,7.41,2.55,9.78s4.08,3.55,7.14,3.55c3.96,0,6.88-1.8,8.74-5.41v-16.8c-1.92-3.51-4.82-5.27-8.67-5.27-3.06,0-5.45,1.19-7.17,3.57-1.73,2.38-2.59,5.91-2.59,10.58Z"/>
    <path class="cls-1" d="M262.78,3.64c0-1.02.31-1.88.93-2.59.63-.7,1.55-1.05,2.77-1.05s2.15.35,2.79,1.05c.63.7.95,1.56.95,2.59s-.32,1.87-.95,2.55c-.63.68-1.56,1.02-2.79,1.02s-2.15-.34-2.77-1.02c-.62-.68-.93-1.53-.93-2.55ZM269.58,50.2h-6.29V13.4h6.29v36.8Z"/>
    <path class="cls-1" d="M285.61,13.4l.2,4.63c2.81-3.54,6.48-5.31,11.02-5.31,7.78,0,11.7,4.39,11.77,13.16v24.32h-6.29v-24.35c-.02-2.66-.63-4.62-1.82-5.88-1.19-1.27-3.04-1.91-5.56-1.91-2.04,0-3.84.55-5.38,1.63s-2.74,2.51-3.6,4.29v26.22h-6.29V13.4h5.95Z"/>
    <path class="cls-1" d="M333.36,50.88c-4.99,0-9.05-1.63-12.18-4.91-3.13-3.28-4.7-7.66-4.7-13.15v-1.16c0-3.65.7-6.91,2.09-9.78s3.34-5.11,5.85-6.73,5.22-2.43,8.15-2.43c4.78,0,8.51,1.58,11.16,4.73,2.65,3.15,3.98,7.66,3.98,13.54v2.62h-24.93c.09,3.63,1.15,6.56,3.18,8.8s4.61,3.35,7.74,3.35c2.22,0,4.1-.45,5.65-1.36,1.54-.9,2.89-2.11,4.05-3.6l3.84,2.99c-3.08,4.74-7.71,7.11-13.87,7.11ZM332.58,17.89c-2.54,0-4.67.92-6.4,2.77-1.72,1.85-2.79,4.44-3.2,7.77h18.44v-.48c-.18-3.2-1.04-5.68-2.59-7.43s-3.63-2.63-6.26-2.63Z"/>
  </g>
  <g>
    <path class="cls-1" d="M378.05,130.19c-9.98-6.72-33.54-8.97-50.91-5.11-1.7-16.99-10.74-31.66-27.66-44.84l-8.08-5.43-5.4,8.14c-8,12.16-12,29.03-10.69,45.18,1.03,9.91,4.34,19.26,9.21,26.12-10.54,5.62-21.36,7.87-39.94,8.7-1.47.07-2.96.13-4.53.18-3.49.11-7.23.18-11.29.22-2.39.02-4.89.04-7.49.04-.19,0-.37,0-.57,0-3.14,0-6.45,0-9.93-.01-5.69-.02-11.81-.06-18.51-.11-1.8-.01-3.72-.02-5.59-.03-1.24,0-2.42-.02-3.69-.02-10.27-.06-21.68-.12-34.42-.12H.08l-.04,2.21c-.43,21.67,2.85,63.16,29.66,97.47.54.69,1.14,1.36,1.71,2.05,1.01,1.24,2.02,2.48,3.09,3.69,1.57,1.77,3.2,3.5,4.89,5.19,4.54,4.55,9.42,8.68,14.6,12.4,2.62,1.88,5.34,3.64,8.13,5.32,20.43,12.29,45.2,18.93,74.04,19.79,1.2.04,2.41.05,3.62.07.9.01,1.78.05,2.69.05h.18c79.2,0,139.93-46.81,175.7-135.38h.08c13.83.29,46.2.98,62.24-30.08.15-.19.52-.7,4.36-8.69l.84-1.76-7.81-5.25ZM192.23,167.79c22.11.15,38.46.26,51.29-.26,1.69,2.42,3.18,5,4.35,7.75l-12.51,11.77c.32,1.71.5,3.47.5,5.27s-.16,3.42-.46,5.06l12.6,11.67c-2.6,6.25-6.62,11.75-11.64,16.12l-15.04-8.25c-2.98,1.64-6.3,2.76-9.81,3.22l-7.2,15.58c-6.89-.54-13.33-2.68-18.94-6.06l3.21-16.87c-2.52-2.36-4.6-5.18-6.11-8.33l-17.04-2.03c-.77-3.24-1.19-6.63-1.19-10.11s.39-6.64,1.12-9.78l17.02-2.16c1.49-3.16,3.55-5.99,6.05-8.37l-.84-4.24c1.55,0,3.17.02,4.67.03ZM42.56,270.53c-1.97-1.97-3.84-4.02-5.64-6.1l9.28-9.24c-.2-3.62-.05-7.22.43-10.76l-11.09-12.93c1.87-6.11,4.56-11.95,7.99-17.34l17.03.04c2.38-2.66,5.01-5.11,7.9-7.31l1.3-16.96c2.78-1.48,5.69-2.8,8.73-3.93,3.04-1.12,6.11-2,9.19-2.68l12,12.06c1.04-.06,2.09-.09,3.13-.09,2.57,0,5.11.18,7.63.52l12.93-11.09c6.11,1.87,11.95,4.56,17.34,7.99l-.04,17.03c2.66,2.38,5.12,5.01,7.31,7.9l16.96,1.3c1.48,2.78,2.8,5.69,3.93,8.73,1.12,3.04,2,6.11,2.68,9.19l-12.06,12c.2,3.62.05,7.22-.43,10.76l11.09,12.93c-1.87,6.11-4.56,11.95-7.99,17.34l-17.03-.04c-2.38,2.66-5.01,5.11-7.9,7.31l-.73,9.56c-39.46-1.14-71.05-13.29-93.93-36.2ZM376.85,143.52c-14.94,28.86-45.3,28.24-58.33,27.95l-3.21-.06-.58,1.44c-35.46,88.92-93.34,133.99-172.09,133.99h-.19c-.79,0-1.56-.04-2.34-.04l.6-7.77c2.11-1.7,4.12-3.57,6-5.56l15.43.03h1.99s1.07-1.67,1.07-1.67c3.61-5.67,6.44-11.8,8.4-18.22l.58-1.9-1.29-1.51-10.05-11.72c.29-2.72.4-5.46.33-8.17l10.93-10.88,1.41-1.4-.43-1.94c-.74-3.35-1.69-6.6-2.82-9.65-1.13-3.06-2.52-6.14-4.12-9.17l-.93-1.76-1.98-.15-15.37-1.18c-1.7-2.11-3.57-4.12-5.56-6l.04-15.43v-1.99s-1.67-1.07-1.67-1.07c-5.67-3.61-11.8-6.44-18.22-8.4l-1.9-.58-1.51,1.29-11.72,10.05c-2.16-.23-4.33-.35-6.48-.35-.56,0-1.12,0-1.69.02l-10.88-10.93-1.4-1.41-1.94.43c-3.35.74-6.59,1.69-9.65,2.82-3.06,1.13-6.15,2.52-9.17,4.12l-1.76.93-.15,1.98-1.18,15.38c-2.11,1.7-4.12,3.57-6,5.56l-15.43-.03h-1.99s-1.07,1.67-1.07,1.67c-3.61,5.67-6.44,11.8-8.4,18.22l-.58,1.9,1.29,1.51,10.05,11.72c-.3,2.72-.41,5.46-.33,8.17l-7.92,7.89c-.44-.55-.93-1.08-1.36-1.63C8.18,227.93,4.37,189.21,4.51,167.62h144.04c13.13,0,24.81.06,35.32.12l.61,3.09c-1.74,1.89-3.24,3.96-4.48,6.2l-15.13,1.92-2.5.32-.56,2.46c-.8,3.49-1.21,7.06-1.21,10.59s.43,7.34,1.29,10.94l.58,2.46,2.51.3,15.14,1.81c1.25,2.23,2.77,4.29,4.53,6.17l-2.85,15-.47,2.48,2.16,1.3c6.19,3.72,13.29,5.99,20.52,6.57l2.51.2,1.06-2.29,6.4-13.84c2.52-.5,4.95-1.3,7.27-2.39l13.36,7.33,2.21,1.21,1.9-1.66c5.48-4.77,9.84-10.81,12.61-17.46l.97-2.33-1.85-1.71-11.2-10.37c.15-1.24.22-2.48.22-3.7,0-1.31-.08-2.63-.25-3.95l11.12-10.46,1.84-1.73-.99-2.32c-.97-2.28-2.19-4.44-3.51-6.55,18.91-1.04,29.85-3.75,41.34-10.42l2.3-1.33-1.69-2.05c-5.2-6.31-8.78-15.74-9.83-25.8-1.22-15.14,2.5-30.94,9.97-42.28l2.88-4.36,4.18,2.81c16.6,12.93,25.11,27.37,26.01,44.13l.15,2.78,2.69-.73c17.75-4.78,41.37-1.85,49.85,3.86l4.57,3.07c-1.45,3-2.88,5.88-3.25,6.51Z"/>
    <path class="cls-1" d="M207.39,209.39c3.48,0,6.64-1.02,9.5-3.08,2.86-2.05,4.87-4.73,6.03-8.03h-4.29c-.85,2.29-2.34,4.13-4.48,5.5-2.07,1.31-4.34,1.97-6.83,1.97-3.12,0-5.9-1.13-8.35-3.39-2.46-2.27-3.77-4.96-3.92-8.06h28.77l.06-1.16c0-4.59-1.61-8.54-4.82-11.87-3.24-3.37-7.14-5.05-11.73-5.05s-8.38,1.65-11.62,4.94c-3.2,3.27-4.79,7.17-4.79,11.7s1.6,8.43,4.79,11.65c3.23,3.25,7.12,4.88,11.67,4.88ZM199.24,182.93c2.31-2.05,5.03-3.08,8.15-3.08s5.86,1.03,8.15,3.08c2.27,2.03,3.68,4.61,4.2,7.73h-24.68c.51-3.12,1.9-5.7,4.17-7.73Z"/>
    <path class="cls-1" d="M102.72,221.89c-8.16,0-15.26,3.02-21.11,8.97-5.79,5.92-8.72,13.08-8.72,21.28s2.93,15.35,8.72,21.17c5.85,5.89,12.99,8.87,21.22,8.87,6.29,0,12.1-1.88,17.27-5.59,4.82-3.45,8.35-7.96,10.52-13.41h-6.1c-1.68,4.2-4.55,7.61-8.53,10.15-4,2.55-8.47,3.84-13.27,3.84-6.05,0-11.52-2.21-16.24-6.58-4.77-4.41-7.34-9.7-7.63-15.72l-.05-.95h53.95l.07-1.31c0-8.26-2.95-15.53-8.78-21.55-5.85-6.09-13.02-9.18-21.32-9.18ZM127.02,248.92h-48.34l.17-1.05c.98-6.03,3.71-11.07,8.1-15,4.49-3.97,9.82-5.99,15.86-5.99s11.41,2.01,15.86,5.99c4.4,3.92,7.14,8.96,8.16,14.99l.18,1.06Z"/>
  </g>
</svg>