<?xml version="1.0" encoding="UTF-8"?>
<svg id="Layer_1" xmlns="http://www.w3.org/2000/svg" xmlns:xlink="http://www.w3.org/1999/xlink" version="1.1" viewBox="175 110 1000 800">
  <!-- Generator: Adobe Illustrator 29.5.1, SVG Export Plug-In . SVG Version: 2.1.0 Build 141)  -->
  <defs>
    <style>
      .st0, .st1, .st2 {
        fill: none;
      }

      .st1 {
        stroke: #58595b;
        stroke-width: 8.48px;
      }

      .st1, .st2 {
        stroke-miterlimit: 10;
      }

      .st3, .st4 {
        fill: #58595b;
      }

      .st4 {
        font-family: Roboto-Regular, Helvetical, Arial;
        font-size: 160px;
      }

      .st5 {
        clip-path: url(#clippath);
      }

      .st2 {
        stroke: #58595b;
        stroke-width: 11.31px;
      }
    </style>
    <clipPath id="clippath">
      <path class="st0" d="M1141.97,441.66c-23.41-15.75-84.91-22.48-129.63-10.44-2.41-44.54-25.38-82.08-67.4-114.82l-15.55-10.44-10.37,15.66c-20.37,30.93-28.96,72.13-25.92,109.6,2.4,23.08,10.42,49.02,25.92,67.85-58.2,33.76-111.84,26.1-349.41,26.1H202.84c-1.07,53.64,7.55,156.83,73.17,240.84,7.25,9.28,15.2,18.26,23.82,26.9,53.36,53.43,133.96,92.6,254.5,92.71,183.89.17,341.44-99.23,437.28-339.57,31.54.52,114.79,5.65,155.53-73.07.99-1.32,10.37-20.88,10.37-20.88l-15.53-10.44Z"/>
    </clipPath>
  </defs>
  <path class="st2" d="M1141.97,441.66c-23.41-15.75-84.91-22.48-129.63-10.44-2.41-44.54-25.38-82.08-67.4-114.82l-15.55-10.44-10.37,15.66c-20.37,30.93-28.96,72.13-25.92,109.6,2.4,23.08,10.42,49.02,25.92,67.85-58.2,33.76-111.84,26.1-349.41,26.1H202.84c-1.07,53.64,7.55,156.83,73.17,240.84,7.25,9.28,15.2,18.26,23.82,26.9,53.36,53.43,133.96,92.6,254.5,92.71,183.89.17,341.44-99.23,437.28-339.57,31.54.52,114.79,5.65,155.53-73.07.99-1.32,10.37-20.88,10.37-20.88l-15.53-10.44Z"/>
  <path class="st1" d="M1016.16,425.85"/>
  <text class="st4" transform="translate(189.35 448.12)"><tspan x="0" y="0">Docker</tspan></text>
  <text class="st4" transform="translate(189.35 263.69)"><tspan x="0" y="0">EasyEngine</tspan></text>
  <g class="st5">
    <g>
      <path class="st3" d="M758.39,597.73h-72.13c.38,7.78,3.65,14.52,9.83,20.22,6.13,5.66,13.11,8.49,20.93,8.49,6.22,0,11.93-1.66,17.12-4.95,5.38-3.45,9.12-8.04,11.24-13.79h10.75c-2.92,8.3-7.97,15.01-15.13,20.15-7.17,5.15-15.11,7.71-23.83,7.71-11.41,0-21.17-4.08-29.28-12.24-8.02-8.06-12.02-17.79-12.02-29.21s4-21.14,12.02-29.34c8.11-8.25,17.82-12.38,29.13-12.38s21.31,4.22,29.42,12.67c8.06,8.34,12.09,18.26,12.09,29.77l-.14,2.91ZM748.14,588.61c-1.32-7.83-4.84-14.29-10.54-19.38-5.75-5.14-12.56-7.71-20.44-7.71s-14.64,2.58-20.44,7.71c-5.71,5.09-9.19,11.55-10.47,19.38h61.88Z"/>
      <g><!-- big gear -->
      <path class="st3" d="M416.98,570.23l30.1,30.23c2.62-.15,5.23-.22,7.84-.22,6.43,0,12.82.44,19.13,1.3l32.41-27.8c15.33,4.69,29.96,11.43,43.47,20.04l-.1,42.7c6.67,5.96,12.83,12.57,18.34,19.81l42.54,3.26c3.71,6.98,7.03,14.26,9.84,21.89,2.81,7.62,5.01,15.32,6.73,23.04l-30.23,30.1c.51,9.08.12,18.11-1.08,26.97l27.8,32.41c-4.69,15.33-11.43,29.96-20.04,43.47l-42.7-.1c-5.96,6.67-12.57,12.83-19.81,18.34l-3.26,42.54c-6.98,3.71-14.26,7.03-21.89,9.84-7.62,2.81-15.32,5.01-23.04,6.73l-30.1-30.23c-2.62.15-5.23.22-7.83.22-6.43,0-12.83-.44-19.14-1.3l-32.41,27.8c-15.33-4.69-29.96-11.43-43.47-20.04l.1-42.7c-6.67-5.96-12.83-12.57-18.34-19.81l-42.54-3.26c-3.71-6.98-7.03-14.26-9.84-21.89-2.81-7.62-5.01-15.32-6.73-23.04l30.23-30.1c-.51-9.08-.12-18.11,1.08-26.97l-27.8-32.41c4.69-15.33,11.43-29.96,20.04-43.47l42.7.1c5.96-6.67,12.57-12.83,19.81-18.34l3.26-42.54c6.98-3.71,14.26-7.03,21.89-9.84,7.62-2.81,15.32-5.01,23.04-6.73M419.89,560.3l-4.87,1.08c-8.39,1.86-16.54,4.24-24.21,7.07-7.67,2.83-15.41,6.31-23,10.34l-4.41,2.34-.38,4.98-2.95,38.56c-5.3,4.27-10.34,8.94-15.05,13.93l-38.71-.09h-4.99s-2.68,4.2-2.68,4.2c-9.05,14.21-16.14,29.58-21.07,45.69l-1.46,4.77,3.25,3.79,25.2,29.38c-.74,6.82-1.01,13.68-.82,20.49l-27.4,27.28-3.54,3.52,1.08,4.87c1.86,8.4,4.24,16.54,7.07,24.21,2.83,7.67,6.31,15.41,10.34,23l2.34,4.41,4.98.38,38.56,2.95c4.27,5.3,8.94,10.34,13.93,15.05l-.09,38.71v4.99s4.2,2.68,4.2,2.68c14.21,9.05,29.58,16.14,45.69,21.07l4.77,1.46,3.79-3.25,29.38-25.2c5.42.59,10.87.88,16.27.88,1.41,0,2.81-.02,4.22-.06l27.28,27.4,3.52,3.54,4.87-1.08c8.4-1.87,16.54-4.24,24.21-7.07,7.67-2.83,15.41-6.31,23-10.34l4.41-2.34.38-4.98,2.95-38.56c5.3-4.28,10.34-8.94,15.05-13.93l38.71.09h4.99s2.68-4.2,2.68-4.2c9.05-14.21,16.14-29.58,21.07-45.69l1.46-4.77-3.25-3.79-25.2-29.38c.74-6.82,1.01-13.68.82-20.49l27.4-27.28,3.54-3.52-1.08-4.87c-1.86-8.4-4.24-16.54-7.07-24.21-2.83-7.67-6.31-15.41-10.34-23l-2.34-4.41-4.98-.38-38.56-2.95c-4.27-5.3-8.94-10.34-13.93-15.05l.09-38.71v-4.99s-4.2-2.68-4.2-2.68c-14.21-9.05-29.58-16.14-45.69-21.07l-4.77-1.46-3.79,3.25-29.38,25.2c-5.41-.59-10.87-.88-16.26-.88-1.41,0-2.82.02-4.23.06l-27.28-27.4-3.52-3.54h0Z"/>
            <animateTransform attributeName="transform" attributeType="XML" dur="15s" from="0 454 741" repeatCount="indefinite" to="360 454 741" type="rotate"/>
      </g>
      <g> <!-- small gear -->

      <path class="st3" d="M708.57,484l18.35,38.93c8.84,1.1,17.17,3.83,24.68,7.89l37.54-20.98c12.69,10.88,22.87,24.6,29.51,40.21l-31.38,29.51c.81,4.28,1.26,8.7,1.26,13.22s-.41,8.57-1.16,12.68l31.6,29.27c-6.52,15.66-16.59,29.46-29.2,40.44l-37.71-20.69c-7.48,4.12-15.79,6.92-24.61,8.09l-18.05,39.06c-17.28-1.37-33.43-6.73-47.51-15.2l8.04-42.32c-6.31-5.93-11.54-12.99-15.33-20.89l-42.72-5.1c-1.93-8.14-2.99-16.62-2.99-25.35s.99-16.64,2.8-24.53l42.69-5.42c3.73-7.92,8.9-15.03,15.16-21l-8.37-42.26c14.02-8.58,30.13-14.07,47.39-15.56M714.08,474.42l-6.29.55c-18.13,1.57-35.88,7.4-51.34,16.86l-5.39,3.3,1.23,6.2,7.43,37.56c-4.37,4.73-8.13,9.93-11.23,15.55l-37.94,4.82-6.28.8-1.42,6.17c-2.01,8.76-3.03,17.69-3.03,26.56s1.09,18.42,3.23,27.44l1.46,6.16,6.29.75,37.97,4.53c3.14,5.59,6.94,10.77,11.36,15.47l-7.15,37.61-1.18,6.21,5.41,3.26c15.52,9.34,33.32,15.03,51.47,16.47l6.3.5,2.65-5.73,16.04-34.7c6.32-1.25,12.42-3.25,18.23-5.99l33.5,18.39,5.55,3.04,4.77-4.15c13.73-11.95,24.67-27.1,31.62-43.79l2.43-5.84-4.64-4.3-28.09-26.01c.37-3.11.55-6.21.55-9.28,0-3.28-.21-6.59-.62-9.89l27.89-26.23,4.61-4.34-2.48-5.82c-7.08-16.63-18.13-31.68-31.96-43.54l-4.8-4.12-5.52,3.09-33.35,18.64c-5.83-2.69-11.95-4.64-18.29-5.84l-16.31-34.59-2.69-5.71h0Z"/>
            <animateTransform attributeName="transform" attributeType="XML" dur="9s" from="360 718 592" repeatCount="indefinite" to="0 718 592" type="rotate"/>
      </g>
      <path class="st3" d="M454.68,666.92c-20.46,0-38.27,7.56-52.94,22.49-14.51,14.84-21.86,32.81-21.86,53.37s7.35,38.5,21.85,53.08c14.67,14.76,32.57,22.25,53.21,22.25,15.77,0,30.34-4.71,43.3-14.01,12.08-8.66,20.95-19.96,26.38-33.63h-15.3c-4.22,10.52-11.41,19.08-21.39,25.46-10.04,6.39-21.23,9.63-33.27,9.63-15.18,0-28.88-5.54-40.73-16.49-11.97-11.05-18.4-24.32-19.13-39.43l-.12-2.37h135.28l.16-3.28c0-20.72-7.41-38.94-22.01-54.05-14.68-15.27-32.66-23.01-53.45-23.01ZM515.62,734.71h-121.21l.43-2.63c2.46-15.12,9.3-27.77,20.32-37.61,11.25-9.96,24.63-15.01,39.78-15.01s28.62,5.05,39.78,15.01c11.02,9.83,17.9,22.48,20.46,37.59l.45,2.65Z"/>

    </g>
  </g>
</svg>
