<svg xmlns="http://www.w3.org/2000/svg" version="1.1" xmlns:xlink="http://www.w3.org/1999/xlink" width="1024" height="1024"><svg xmlns="http://www.w3.org/2000/svg" version="1.1" xmlns:xlink="http://www.w3.org/1999/xlink" width="1024" height="1024"><svg id="Layer_1" data-name="Layer 1" xmlns="http://www.w3.org/2000/svg" viewBox="0 0 1024 1024">
  <defs>
    <style>
      .cls-1 {
        fill: #231f20;
      }
    </style>
  </defs>
  <path class="cls-1" d="M940.1,497.07h-.05c-21.71-13.53-70.2-17.95-106.12-9.98-3.59-35.83-22.64-66.76-58.07-94.37l-17.32-11.65-11.37,17.17c-16.89,25.64-25.32,61.22-22.57,95.18v.11c2.18,20.89,9.18,40.62,19.43,55.09-37.6,20.08-76.54,19.83-194.6,19.05-26.68-.18-56.91-.37-92.15-.37H144.15l-.09,4.66c-.43,21.63.93,55.31,9.86,92.89,10.26,43.15,27.98,81.06,52.68,112.68,6.2,7.93,13.07,15.69,20.42,23.06,52.51,52.58,125.65,79.28,217.4,79.37h.4c81.03,0,153.05-22.83,214.08-67.87,64.84-47.85,117.48-121.08,156.48-217.65.05,0,.11,0,.16,0,29.14.61,97.35,2.05,131.6-63.94.66-1.11,2.54-4.66,8.86-17.84l1.78-3.71-17.68-11.88ZM657.67,576.63c3.54,5.1,6.59,10.57,9.05,16.35l-26.39,24.82c.68,3.6,1.06,7.32,1.06,11.12s-.34,7.21-.98,10.66l26.58,24.62c-5.48,13.17-13.95,24.78-24.56,34.01l-31.71-17.4c-6.29,3.46-13.28,5.82-20.7,6.8l-15.18,32.85c-14.53-1.15-28.12-5.66-39.96-12.78l6.76-35.59c-5.31-4.99-9.71-10.92-12.89-17.57l-35.93-4.29c-1.62-6.85-2.51-13.98-2.51-21.32s.83-13.99,2.35-20.63l35.9-4.56c3.14-6.66,7.49-12.64,12.75-17.66l-1.77-8.94c3.32.02,6.59.04,9.81.06,46.71.31,81.23.54,108.32-.55ZM221.81,781.03l19.61-19.53c-.43-7.64-.1-15.23.91-22.68l-23.38-27.26c3.94-12.89,9.61-25.2,16.85-36.56l35.91.08c5.01-5.61,10.57-10.79,16.66-15.42l2.74-35.78c5.87-3.12,11.99-5.91,18.41-8.28,6.41-2.36,12.88-4.21,19.38-5.66l25.31,25.42c2.2-.13,4.4-.18,6.59-.18,5.41,0,10.78.37,16.09,1.09l27.26-23.38c12.89,3.94,25.2,9.61,36.56,16.85l-.08,35.91c5.61,5.01,10.79,10.57,15.42,16.66l35.78,2.74c3.12,5.87,5.91,11.99,8.28,18.41,2.36,6.41,4.21,12.88,5.66,19.38l-25.42,25.31c.43,7.64.1,15.23-.91,22.68l23.38,27.26c-3.94,12.89-9.61,25.2-16.85,36.56l-35.91-.08c-5.01,5.61-10.57,10.79-16.66,15.42l-1.55,20.23c-83.24-2.4-149.84-28.05-198.1-76.37-4.15-4.16-8.14-8.46-11.94-12.84ZM939.09,525.44l-.32.54c-13.51,26.11-34.52,43.76-62.43,52.45-23.4,7.29-46.69,6.8-60.61,6.5-1.23-.03-2.38-.05-3.47-.07l-3.28-.05-1.21,3.05c-38.45,96.42-90.44,169.29-154.52,216.58-59.36,43.81-129.48,66.01-208.43,66.01h-.39c-1.66,0-3.3-.03-4.95-.05l1.26-16.45c4.46-3.6,8.7-7.52,12.66-11.72l32.56.08h4.2l2.25-3.53c7.61-11.95,13.57-24.88,17.72-38.43l1.23-4.01-2.73-3.19-21.19-24.71c.62-5.74.85-11.51.69-17.23l23.04-22.94,2.98-2.96-.91-4.1c-1.56-7.06-3.57-13.91-5.95-20.36-2.38-6.45-5.31-12.96-8.7-19.34l-1.97-3.71-4.19-.32-32.43-2.48c-3.59-4.46-7.52-8.7-11.72-12.66l.08-32.56v-4.2l-3.53-2.25c-11.95-7.61-24.88-13.57-38.43-17.72l-4.01-1.23-3.19,2.73-24.71,21.19c-4.55-.5-9.14-.74-13.68-.74-1.19,0-2.37.02-3.56.05l-22.94-23.04-2.96-2.98-4.1.91c-7.06,1.56-13.91,3.57-20.36,5.95-6.45,2.38-12.96,5.31-19.34,8.7l-3.71,1.97-.32,4.19-2.48,32.43c-4.46,3.59-8.7,7.52-12.66,11.72l-32.56-.08h-4.2l-2.25,3.53c-7.61,11.95-13.57,24.88-17.72,38.43l-1.23,4.01,2.73,3.19,21.19,24.71c-.62,5.74-.85,11.51-.69,17.23l-16.78,16.7c-.95-1.16-1.88-2.33-2.8-3.5-23.85-30.53-40.98-67.22-50.92-109.03-8.09-34.01-9.8-64.75-9.67-85.84h303.77c27.69,0,52.28.12,74.49.26l1.29,6.52c-3.68,3.98-6.84,8.35-9.44,13.08l-31.91,4.05-5.28.67-1.19,5.19c-1.69,7.37-2.55,14.88-2.55,22.34s.92,15.49,2.72,23.08l1.23,5.18,5.29.63,31.93,3.81c2.64,4.7,5.84,9.06,9.55,13.01l-6.01,31.63-.99,5.22,4.55,2.74c13.05,7.86,28.02,12.64,43.29,13.85l5.3.42,2.23-4.82,13.49-29.18c5.32-1.05,10.45-2.73,15.33-5.04l28.17,15.47,4.67,2.56,4.01-3.49c11.55-10.05,20.75-22.79,26.59-36.83l2.04-4.91-3.9-3.62-23.62-21.88c.31-2.62.46-5.22.46-7.8,0-2.76-.18-5.54-.52-8.32l23.46-22.06,3.88-3.65-2.09-4.89c-2.04-4.78-4.47-9.41-7.25-13.82,39.86-2.19,62.81-7.94,87.04-21.99l4.85-2.81-3.56-4.33c-10.95-13.31-18.51-33.16-20.73-54.48-2.58-31.9,5.29-65.21,21.03-89.11l6.08-9.18,8.96,6.02c34.91,27.25,52.82,57.66,54.73,92.97l.32,5.86,5.67-1.53c37.42-10.08,87.24-3.9,105.13,8.13l9.65,6.48c-2.98,6.15-5.88,12.03-6.55,13.19Z"></path>
  <path class="cls-1" d="M203.14,501.16c7.05-3.97,12.48-9.66,16.28-17.07,3.8-7.41,5.7-16.04,5.7-25.9v-6.67c-.05-9.61-1.97-18.12-5.77-25.54-3.8-7.41-9.19-13.13-16.18-17.14-6.98-4.02-15.02-6.03-24.1-6.03h-29.48v104.44h28.91c9.37-.1,17.59-2.13,24.64-6.1ZM163.36,495.99v-81.92h16.07c10.23.1,18.14,3.43,23.71,10.02,5.57,6.58,8.36,15.81,8.36,27.68v6.1c0,12.21-2.95,21.61-8.86,28.22-5.91,6.6-14.17,9.91-24.78,9.91h-14.49Z"></path>
  <path class="cls-1" d="M257.3,433.15c-5.33,3.3-9.49,7.99-12.48,14.06-2.99,6.07-4.48,12.91-4.48,20.52v.93c0,12.05,3.26,21.73,9.79,29.05s15.05,10.98,25.57,10.98c6.98,0,13.16-1.67,18.54-5.02,5.38-3.35,9.52-8.02,12.41-14.02,2.89-6,4.34-12.78,4.34-20.34v-.93c0-12.15-3.26-21.88-9.79-29.2s-15.08-10.98-25.64-10.98c-6.84,0-12.92,1.65-18.26,4.95ZM291.66,447.03c4.04,5.28,6.06,12.18,6.06,20.7,0,9.52-1.99,16.92-5.95,22.2-3.97,5.28-9.33,7.93-16.07,7.93s-12.04-2.61-16.03-7.82c-3.99-5.21-5.99-12.12-5.99-20.73,0-9.71,2.01-17.17,6.03-22.38,4.02-5.21,9.3-7.82,15.85-7.82s12.06,2.64,16.1,7.93Z"></path>
  <path class="cls-1" d="M343.02,446.39c3.71-4.85,8.93-7.28,15.67-7.28,5.02,0,9.24,1.61,12.66,4.84,3.42,3.23,5.32,7.35,5.7,12.37h12.55c-.38-8.32-3.46-15.09-9.22-20.3-5.76-5.21-13-7.82-21.7-7.82-7.08,0-13.21,1.63-18.4,4.88-5.19,3.25-9.17,7.82-11.94,13.7-2.77,5.88-4.16,12.6-4.16,20.16v2.22c0,12.24,3.12,21.89,9.36,28.94,6.24,7.05,14.64,10.58,25.21,10.58,5.26,0,10.25-1.2,14.96-3.59,4.71-2.39,8.48-5.6,11.3-9.61,2.82-4.02,4.35-8.25,4.59-12.7h-12.55c-.38,4.3-2.34,7.89-5.88,10.76-3.54,2.87-7.68,4.3-12.41,4.3-6.84,0-12.1-2.41-15.78-7.24-3.68-4.83-5.52-11.72-5.52-20.66v-2.51c0-9.18,1.85-16.2,5.56-21.05Z"></path>
  <polygon class="cls-1" points="417.87 463.71 417.87 397.07 404.6 397.07 404.6 507.25 417.87 507.25 417.87 480 426.19 471.32 453.24 507.25 468.8 507.25 435.09 462.06 465.29 429.64 449.15 429.64 424.97 455.18 417.87 463.71"></polygon>
  <path class="cls-1" d="M490.93,433.33c-5.28,3.42-9.4,8.15-12.34,14.2-2.94,6.05-4.41,12.92-4.41,20.62v2.44c0,11.57,3.3,20.81,9.9,27.72,6.6,6.91,15.16,10.37,25.68,10.37,13.01,0,22.76-5,29.27-14.99l-8.11-6.31c-2.44,3.16-5.29,5.69-8.54,7.6-3.25,1.91-7.22,2.87-11.91,2.87-6.6,0-12.04-2.35-16.32-7.07-4.28-4.71-6.52-10.89-6.71-18.54h52.58v-5.52c0-12.39-2.8-21.9-8.39-28.55-5.6-6.65-13.44-9.97-23.53-9.97-6.17,0-11.9,1.71-17.18,5.13ZM521.31,444.67c3.25,3.71,5.07,8.93,5.45,15.67v1h-38.88c.86-7.03,3.11-12.49,6.74-16.39,3.63-3.9,8.13-5.85,13.49-5.85s9.95,1.85,13.2,5.56Z"></path>
  <path class="cls-1" d="M592.9,441.55v-12.34c-1.34-.67-3.3-1-5.88-1-7.99,0-14.16,3.47-18.51,10.4l-.22-8.97h-12.91v77.62h13.27v-55.09c3.11-7.41,9.01-11.12,17.72-11.12,2.34,0,4.52.17,6.53.5Z"></path>
  <polygon class="cls-1" points="215.94 340.88 163.36 340.88 163.36 303.87 208.62 303.87 208.62 292.61 163.36 292.61 163.36 258.96 215.22 258.96 215.22 247.7 149.59 247.7 149.59 352.14 215.94 352.14 215.94 340.88"></polygon>
  <path class="cls-1" d="M263.93,305.09c-11.14,0-19.79,2.24-25.93,6.71-6.15,4.47-9.22,10.75-9.22,18.83,0,6.65,2.45,12.14,7.35,16.46,4.9,4.33,11.18,6.49,18.83,6.49,8.56,0,15.92-3.2,22.09-9.61.48,3.92,1.1,6.65,1.87,8.18h13.92v-1.15c-1.82-4.21-2.73-9.87-2.73-17v-35.72c-.19-7.84-2.82-14-7.89-18.47-5.07-4.47-12.08-6.71-21.02-6.71-5.64,0-10.82,1.05-15.53,3.16-4.71,2.1-8.44,4.96-11.19,8.57-2.75,3.61-4.12,7.35-4.12,11.23h13.34c0-3.4,1.6-6.29,4.81-8.68,3.2-2.39,7.17-3.59,11.91-3.59,5.4,0,9.49,1.38,12.27,4.12,2.77,2.75,4.16,6.44,4.16,11.08v6.1h-12.91ZM276.84,330.41c-1.67,3.44-4.38,6.24-8.11,8.39-3.73,2.15-7.68,3.23-11.84,3.23s-7.92-1.17-10.69-3.52c-2.77-2.34-4.16-5.6-4.16-9.76,0-9.52,8.13-14.27,24.39-14.27h10.4v15.92Z"></path>
  <path class="cls-1" d="M351.55,339.7c-3.04,2.03-7.07,3.05-12.09,3.05-5.45,0-9.84-1.3-13.16-3.91-3.32-2.61-5.11-6.13-5.34-10.58h-13.27c0,4.59,1.35,8.86,4.05,12.8,2.7,3.95,6.44,7.02,11.23,9.22,4.78,2.2,10.28,3.3,16.5,3.3,8.85,0,16.04-2.09,21.59-6.28,5.55-4.18,8.32-9.74,8.32-16.68,0-4.16-.99-7.69-2.98-10.58-1.99-2.89-5.03-5.37-9.15-7.42-4.11-2.06-9.48-3.83-16.1-5.31-6.62-1.48-11.2-3.04-13.74-4.66-2.54-1.63-3.8-4.04-3.8-7.24,0-3.4,1.36-6.14,4.09-8.25,2.73-2.1,6.5-3.16,11.33-3.16s8.57,1.32,11.66,3.95c3.08,2.63,4.63,5.76,4.63,9.4h13.34c0-7.08-2.74-12.89-8.21-17.43-5.48-4.54-12.61-6.81-21.41-6.81s-15.24,2.2-20.62,6.6c-5.38,4.4-8.07,9.78-8.07,16.14,0,3.83.94,7.13,2.83,9.9,1.89,2.77,4.81,5.16,8.75,7.17,3.95,2.01,9.28,3.73,16,5.16,6.72,1.43,11.43,3.15,14.13,5.13,2.7,1.99,4.05,4.77,4.05,8.36,0,3.4-1.52,6.11-4.56,8.14Z"></path>
  <path class="cls-1" d="M402.95,359.17c-1.63,4.83-3.69,8.15-6.2,9.97-2.51,1.82-6.01,2.73-10.51,2.73l-3.59-.29v10.76l4.95.93,2.51.22c10.52,0,18.2-6.46,23.03-19.37l31.2-89.59h-14.2l-18.08,58.18-19.37-58.18h-14.49l27.69,76.75-2.94,7.89Z"></path>
  <polygon class="cls-1" points="524.61 340.88 472.03 340.88 472.03 303.87 517.29 303.87 517.29 292.61 472.03 292.61 472.03 258.96 523.89 258.96 523.89 247.7 458.26 247.7 458.26 352.14 524.61 352.14 524.61 340.88"></polygon>
  <path class="cls-1" d="M552.94,296.84c1.82-3.73,4.35-6.74,7.6-9.04,3.25-2.3,7.03-3.44,11.33-3.44,5.31,0,9.22,1.34,11.73,4.02,2.51,2.68,3.79,6.81,3.84,12.41v51.36h13.27v-51.29c-.14-18.51-8.42-27.76-24.82-27.76-9.56,0-17.31,3.73-23.24,11.19l-.43-9.76h-12.55v77.62h13.27v-55.31Z"></path>
  <path class="cls-1" d="M648.06,353.58c9.18,0,16.43-3.06,21.73-9.18v6.67c0,6.6-1.8,11.72-5.42,15.35-3.61,3.63-8.64,5.45-15.1,5.45-8.23,0-15.18-3.51-20.87-10.54l-6.89,7.96c2.82,4.16,6.91,7.44,12.27,9.83,5.36,2.39,10.83,3.59,16.43,3.59,10.04,0,18.04-2.89,24-8.68,5.95-5.79,8.93-13.7,8.93-23.74v-75.75h-12.12l-.65,8.61c-5.31-6.69-12.7-10.04-22.17-10.04s-16.64,3.58-22.24,10.72c-5.6,7.15-8.39,16.77-8.39,28.87s2.81,22.6,8.43,29.91c5.62,7.32,12.97,10.98,22.06,10.98ZM636.37,291.89c3.63-5.02,8.68-7.53,15.14-7.53,8.13,0,14.23,3.71,18.29,11.12v35.44c-3.92,7.6-10.07,11.41-18.43,11.41-6.46,0-11.48-2.5-15.06-7.5-3.59-5-5.38-11.87-5.38-20.62,0-9.85,1.82-17.29,5.45-22.31Z"></path>
  <path class="cls-1" d="M711.04,261.47c2.58,0,4.54-.72,5.88-2.15,1.34-1.43,2.01-3.23,2.01-5.38s-.67-3.97-2.01-5.45c-1.34-1.48-3.3-2.22-5.88-2.22s-4.53.74-5.85,2.22c-1.32,1.48-1.97,3.3-1.97,5.45s.66,3.95,1.97,5.38,3.26,2.15,5.85,2.15Z"></path>
  <rect class="cls-1" x="704.3" y="274.53" width="13.27" height="77.62"></rect>
  <path class="cls-1" d="M752.08,296.84c1.82-3.73,4.35-6.74,7.6-9.04,3.25-2.3,7.03-3.44,11.33-3.44,5.31,0,9.22,1.34,11.73,4.02,2.51,2.68,3.79,6.81,3.84,12.41v51.36h13.27v-51.29c-.14-18.51-8.42-27.76-24.82-27.76-9.56,0-17.31,3.73-23.24,11.19l-.43-9.76h-12.55v77.62h13.27v-55.31Z"></path>
  <path class="cls-1" d="M852.07,353.58c13.01,0,22.76-5,29.27-14.99l-8.11-6.31c-2.44,3.16-5.28,5.69-8.54,7.6-3.25,1.91-7.22,2.87-11.91,2.87-6.6,0-12.04-2.35-16.32-7.07-4.28-4.71-6.52-10.89-6.71-18.54h52.58v-5.52c0-12.39-2.8-21.9-8.39-28.55-5.59-6.65-13.44-9.97-23.53-9.97-6.17,0-11.9,1.71-17.18,5.13-5.28,3.42-9.4,8.15-12.34,14.2-2.94,6.05-4.41,12.92-4.41,20.62v2.44c0,11.57,3.3,20.81,9.9,27.72,6.6,6.91,15.16,10.37,25.68,10.37ZM836.94,289.84c3.63-3.9,8.13-5.85,13.49-5.85s9.95,1.85,13.2,5.56c3.25,3.71,5.07,8.93,5.45,15.67v1h-38.88c.86-7.03,3.11-12.49,6.74-16.39Z"></path>
  <path class="cls-1" d="M581.37,664.9c7.33,0,14.01-2.15,20.04-6.48,6.02-4.32,10.27-9.97,12.72-16.95h-9.04c-1.78,4.84-4.93,8.7-9.45,11.6-4.36,2.77-9.17,4.16-14.4,4.16-6.58,0-12.45-2.38-17.6-7.14-5.2-4.79-7.95-10.46-8.27-17.01h60.66,0s.12-2.44.12-2.44c0-9.68-3.39-18.02-10.17-25.04-6.82-7.11-15.23-10.66-24.74-10.66s-17.68,3.47-24.5,10.41c-6.75,6.9-10.11,15.07-10.11,24.68s3.36,17.79,10.11,24.57c6.82,6.86,15.03,10.29,24.63,10.29ZM564.18,609.11c4.88-4.31,10.56-6.48,17.19-6.48s12.35,2.16,17.19,6.48c4.79,4.28,7.75,9.71,8.86,16.3h-52.05c1.08-6.59,4-12.02,8.81-16.3Z"></path>
  <rect class="cls-1" x="578.77" y="529.37" width="0" height="0"></rect>
  <path class="cls-1" d="M424.06,756.09c0-17.43-6.23-32.75-18.51-45.46-12.35-12.84-27.47-19.35-44.95-19.35h.02c-17.21,0-32.19,6.35-44.52,18.91-12.2,12.48-18.38,27.59-18.38,44.89s6.18,32.38,18.38,44.64c12.34,12.41,27.39,18.71,44.75,18.71,13.26,0,25.52-3.96,36.42-11.78,10.16-7.28,17.62-16.79,22.19-28.28h-12.87c-3.55,8.85-9.6,16.05-17.99,21.41-8.44,5.37-17.85,8.1-27.98,8.1-12.77,0-24.29-4.66-34.25-13.87-10.07-9.29-15.47-20.45-16.09-33.16l-.1-1.99h113.77l.13-2.76ZM411.87,748.28h-101.94l.36-2.21c2.07-12.72,7.82-23.36,17.09-31.63,9.46-8.38,20.71-12.62,33.46-12.62s24.07,4.25,33.46,12.62c9.27,8.27,15.05,18.91,17.21,31.61l.38,2.23h0Z"></path>
</svg></svg><style>@media (prefers-color-scheme: light) { :root { filter: none; } }
@media (prefers-color-scheme: dark) { :root { filter: invert(100%); } }
</style></svg>