<?xml version="1.0" encoding="UTF-8"?>
<svg id="Layer_1" data-name="Layer 1" xmlns="http://www.w3.org/2000/svg" viewBox="0 0 61.41 50.2">
  <defs>
    <style>
      .cls-1 {
        fill: #231f20;
      }
    </style>
  </defs>
  <g>
    <g>
      <path class="cls-1" d="M20.08,22.61c-1.67,0-3.15.56-4.39,1.66-1.22,1.08-1.97,2.48-2.24,4.15l-.05.29h13.37l-.05-.29c-.28-1.67-1.04-3.06-2.26-4.14-1.23-1.1-2.71-1.66-4.39-1.66Z"/>
      <path class="cls-1" d="M36.68,31.34c.08-.75.11-1.51.09-2.26l3.02-3.01.39-.39-.12-.54c-.21-.93-.47-1.82-.78-2.67-.31-.85-.7-1.7-1.14-2.54l-.26-.49-.55-.04-4.25-.33c-.47-.58-.99-1.14-1.54-1.66v-4.27s.01-.55.01-.55l-.46-.3c-1.57-1-3.26-1.78-5.04-2.32l-.53-.16-.42.36-3.24,2.78c-.6-.06-1.2-.1-1.79-.1-.16,0-.31,0-.47,0l-3.01-3.02-.39-.39-.54.12c-.93.21-1.82.47-2.67.78-.85.31-1.7.7-2.54,1.14l-.49.26-.04.55-.33,4.25c-.58.47-1.14.99-1.66,1.54H3.7s-.55-.01-.55-.01l-.3.46c-1,1.57-1.78,3.26-2.32,5.04l-.16.53.36.42,2.78,3.24c-.08.75-.11,1.51-.09,2.26l-3.02,3.01-.39.39.12.54c.21.93.47,1.82.78,2.67s.7,1.7,1.14,2.54l.26.49.55.04,4.25.33c.47.58.99,1.14,1.54,1.66v4.27s-.01.55-.01.55l.46.3c1.57,1,3.26,1.78,5.04,2.32l.53.16.42-.36,3.24-2.78c.6.06,1.2.1,1.79.1.16,0,.31,0,.47,0l3.01,3.02.39.39.54-.12c.93-.21,1.82-.47,2.67-.78.85-.31,1.7-.7,2.54-1.14l.49-.26.04-.55.33-4.25c.58-.47,1.14-.99,1.66-1.54h4.27s.55.01.55.01l.3-.46c1-1.57,1.78-3.26,2.32-5.04l.16-.53-.36-.42-2.78-3.24ZM28.36,30.08h-14.92v.26c.09,1.67.8,3.13,2.12,4.35,1.31,1.21,2.82,1.82,4.49,1.82,1.33,0,2.56-.36,3.67-1.06,1.1-.7,1.89-1.65,2.36-2.81h1.69c-.6,1.51-1.58,2.75-2.91,3.71-1.43,1.03-3.04,1.54-4.77,1.54-2.28,0-4.25-.83-5.87-2.45-1.6-1.61-2.41-3.58-2.41-5.85s.81-4.25,2.41-5.88c1.62-1.65,3.58-2.48,5.84-2.48s4.28.85,5.89,2.54c1.61,1.67,2.43,3.68,2.43,5.96l-.02.36Z"/>
    </g>
    <g>
      <path class="cls-1" d="M60.9,16.94l-3.1-2.87c.04-.34.06-.69.06-1.02,0-.36-.02-.73-.07-1.09l3.08-2.89.51-.48-.27-.64c-.78-1.83-2-3.49-3.52-4.8l-.53-.45-.61.34-3.68,2.06c-.64-.3-1.32-.51-2.02-.64l-1.8-3.81-.3-.63-.69.06c-2,.17-3.96.82-5.66,1.86l-.59.36.14.68.82,4.14c-.48.52-.9,1.09-1.24,1.71l-4.18.53-.69.09-.16.68c-.22.97-.33,1.95-.33,2.93s.12,2.03.36,3.03l.16.68.69.08,4.19.5c.35.62.77,1.19,1.25,1.71l-.79,4.15-.13.68.6.36c1.71,1.03,3.67,1.66,5.67,1.82l.69.05.29-.63,1.77-3.83c.7-.14,1.37-.36,2.01-.66l3.69,2.03.61.34.53-.46c1.51-1.32,2.72-2.99,3.49-4.83l.27-.64-.51-.47ZM53.54,13.6h-7.95c.04.86.4,1.6,1.08,2.23.68.62,1.45.94,2.31.94.69,0,1.32-.18,1.89-.55.59-.38,1.01-.89,1.24-1.52h1.19c-.32.92-.88,1.66-1.67,2.22-.79.57-1.67.85-2.63.85-1.26,0-2.33-.45-3.23-1.35-.88-.89-1.33-1.96-1.33-3.22s.44-2.33,1.33-3.24c.89-.91,1.96-1.37,3.21-1.37s2.35.47,3.24,1.4c.89.92,1.33,2.01,1.33,3.28l-.02.32Z"/>
      <path class="cls-1" d="M49,9.6c-.86,0-1.61.28-2.25.85-.63.56-1.01,1.27-1.15,2.14h6.82c-.15-.86-.53-1.58-1.16-2.14-.63-.57-1.39-.85-2.25-.85Z"/>
    </g>
  </g>
  <g>
    <path class="cls-1" d="M37.64,48.51l-.79.69.37.42.9-.79.26.29-1.23,1.08-1.42-1.62,1.19-1.04.25.29-.86.75.3.34.79-.69.25.28Z"/>
    <path class="cls-1" d="M40.11,46.64l-.53.6.23.41-.31.35-1.11-2,.34-.38,2.13.85-.32.37-.42-.19ZM39.75,46.49l-.82-.36.45.77.36-.41Z"/>
    <path class="cls-1" d="M42.05,44.29c.06-.09.1-.17.12-.24.03-.13,0-.23-.1-.3-.06-.04-.12-.04-.19-.01-.07.03-.15.09-.25.19l-.17.16c-.17.16-.3.26-.4.29-.16.07-.33.04-.51-.08-.16-.11-.25-.26-.28-.44s.03-.4.19-.62c.13-.19.29-.32.48-.38.19-.07.38-.04.58.08l-.24.36c-.11-.07-.22-.07-.32-.01-.07.04-.13.1-.19.19-.06.1-.1.19-.1.27,0,.08.04.15.1.2.06.04.13.05.2.01.05-.02.12-.08.23-.18l.28-.26c.12-.11.24-.19.34-.22.16-.05.31-.02.47.09.16.11.26.26.28.46.02.2-.04.41-.19.64-.16.23-.33.38-.53.44-.2.06-.39.03-.57-.1l.24-.36c.09.04.17.06.23.06.11-.01.22-.09.32-.24Z"/>
    <path class="cls-1" d="M42.52,39.71l.88,1.25.73.36-.2.4-.73-.36-1.54.06.24-.48,1.04.02-.65-.81.23-.46Z"/>
    <path class="cls-1" d="M44.7,37.41l-.35.99.52.18.4-1.13.37.13-.54,1.54-2.04-.71.52-1.5.36.13-.38,1.08.43.15.35-.99.35.12Z"/>
    <path class="cls-1" d="M46.46,34.17l-.09.44-1.68.55,1.5.31-.09.41-2.11-.44.1-.46,1.65-.53-1.48-.31.09-.41,2.11.44Z"/>
    <path class="cls-1" d="M47.92,32.34c-.04.13-.13.26-.26.37-.22.19-.46.27-.72.24-.27-.02-.53-.17-.75-.43-.23-.26-.34-.54-.34-.82,0-.29.13-.53.37-.74.21-.18.42-.27.63-.28s.4.06.56.2l-.33.29c-.12-.09-.25-.11-.39-.07-.08.02-.15.07-.22.13-.13.11-.2.26-.19.43,0,.17.09.36.26.56.17.2.34.3.51.3.16,0,.3-.05.42-.15.11-.1.18-.21.19-.34s-.02-.25-.09-.38l-.38.33-.24-.27.68-.59.76.87-.23.2-.21-.17c0,.13,0,.24-.03.32Z"/>
    <path class="cls-1" d="M48.97,29.59l.44-.1.46,2.11-.44.1-.46-2.11Z"/>
    <path class="cls-1" d="M53.23,31.17l-.44.08-1.14-1.35.28,1.51-.41.08-.39-2.12.47-.08,1.12,1.33-.27-1.48.41-.08.39,2.12Z"/>
    <path class="cls-1" d="M56.15,29.19l-.98.39.2.52,1.11-.44.14.36-1.52.6-.79-2.01,1.47-.58.14.36-1.06.42.17.43.98-.39.14.35Z"/>
  </g>
</svg>