<?xml version="1.0" encoding="UTF-8"?>
<svg id="Layer_1" data-name="Layer 1" xmlns="http://www.w3.org/2000/svg" viewBox="0 0 512 512">
  <defs>
    <style>
      .cls-1 {
        fill: #231f20;
      }
    </style>
  </defs>
  <path class="cls-1" d="M202.57,13.96l42.29,42.48c3.68-.21,7.35-.31,11.02-.31,9.04,0,18.02.62,26.88,1.83l45.54-39.06c21.53,6.58,42.09,16.06,61.08,28.16l-.13,60c9.37,8.37,18.02,17.66,25.76,27.83l59.76,4.58c5.21,9.81,9.88,20.04,13.83,30.75,3.95,10.71,7.04,21.52,9.45,32.36l-42.48,42.29c.72,12.76.17,25.44-1.52,37.89l39.06,45.54c-6.58,21.53-16.06,42.09-28.16,61.08l-60-.13c-8.37,9.37-17.66,18.02-27.83,25.76l-4.58,59.76c-9.81,5.21-20.04,9.88-30.75,13.83-10.71,3.95-21.52,7.04-32.36,9.45l-42.29-42.48c-3.68.21-7.35.31-11.01.31-9.04,0-18.02-.62-26.89-1.83l-45.54,39.06c-21.53-6.58-42.09-16.06-61.08-28.16l.13-60c-9.37-8.37-18.02-17.66-25.76-27.83l-59.76-4.58c-5.21-9.81-9.88-20.04-13.83-30.75-3.95-10.71-7.04-21.52-9.45-32.37l42.48-42.29c-.72-12.76-.17-25.44,1.52-37.89l-39.06-45.54c6.58-21.53,16.06-42.09,28.16-61.08l60,.14c8.37-9.38,17.66-18.02,27.83-25.76l4.58-59.77c9.81-5.21,20.04-9.88,30.75-13.83,10.71-3.95,21.52-7.04,32.36-9.45M206.66,0l-6.84,1.52c-11.79,2.61-23.23,5.96-34.01,9.93-10.78,3.98-21.65,8.87-32.32,14.53l-6.19,3.29-.54,6.99-4.15,54.17c-7.45,6.01-14.53,12.56-21.14,19.57l-54.38-.12-7.01-.02-3.77,5.91c-12.72,19.96-22.68,41.56-29.6,64.2l-2.05,6.7,4.56,5.32,35.4,41.28c-1.04,9.58-1.43,19.22-1.16,28.79l-38.5,38.33-4.97,4.95,1.52,6.84c2.62,11.79,5.96,23.24,9.94,34.01,3.98,10.78,8.86,21.65,14.53,32.32l3.29,6.19,6.99.54,54.17,4.15c6,7.45,12.56,14.53,19.57,21.14l-.12,54.38-.02,7.01,5.91,3.77c19.96,12.72,41.56,22.68,64.2,29.6l6.7,2.05,5.32-4.56,41.28-35.4c7.61.82,15.27,1.24,22.85,1.24,1.98,0,3.95-.03,5.94-.08l38.33,38.5,4.95,4.97,6.85-1.52c11.8-2.62,23.24-5.96,34.01-9.93,10.78-3.98,21.65-8.86,32.32-14.53l6.19-3.29.54-6.99,4.15-54.17c7.45-6.01,14.53-12.56,21.14-19.57l54.38.12,7.01.02,3.77-5.91c12.72-19.96,22.68-41.56,29.6-64.2l2.05-6.7-4.56-5.32-35.4-41.28c1.04-9.58,1.43-19.22,1.16-28.79l38.5-38.33,4.97-4.95-1.52-6.84c-2.62-11.8-5.96-23.24-9.94-34.01-3.97-10.78-8.86-21.65-14.53-32.32l-3.29-6.19-6.99-.54-54.17-4.15c-6-7.45-12.56-14.53-19.57-21.14l.12-54.38.02-7.01-5.91-3.77c-19.96-12.72-41.56-22.68-64.2-29.6l-6.7-2.05-5.32,4.56-41.28,35.4c-7.6-.82-15.27-1.24-22.84-1.24-1.98,0-3.96.03-5.95.09L211.6,4.97l-4.95-4.97h0Z"/>
  <path class="cls-1" d="M255.53,149.8c-28.74,0-53.77,10.63-74.37,31.59-20.38,20.85-30.72,46.09-30.72,74.98s10.33,54.09,30.7,74.57c20.61,20.74,45.76,31.26,74.76,31.26,22.16,0,42.62-6.62,60.84-19.69,16.97-12.17,29.43-28.05,37.07-47.25h-21.5c-5.93,14.78-16.03,26.8-30.05,35.77-14.1,8.97-29.83,13.53-46.74,13.53-21.32,0-40.58-7.79-57.23-23.17-16.81-15.53-25.86-34.17-26.88-55.4l-.16-3.33h190.06l.23-4.6c0-29.1-10.41-54.71-30.92-75.94-20.62-21.45-45.88-32.33-75.1-32.33ZM341.16,245.04h-170.3l.6-3.7c3.45-21.24,13.06-39.01,28.55-52.83,15.8-14,34.6-21.09,55.89-21.09s40.21,7.09,55.88,21.09c15.49,13.81,25.15,31.58,28.74,52.81l.63,3.72Z"/>
</svg>